<?xml version="1.0" encoding="UTF-8"?><svg id="Layer_1" xmlns="http://www.w3.org/2000/svg" viewBox="0 0 66.02 70.69"><defs><style>.cls-1{fill:#fff;}</style></defs><rect class="cls-1" x="30.48" y="10.11" width="5.05" height="50.54"/><rect class="cls-1" x="30.48" y="10.11" width="5.05" height="50.54" transform="translate(-2.37 68.39) rotate(-90)"/><rect class="cls-1" x="30.48" y="10.11" width="5.05" height="50.54" transform="translate(-15.35 33.7) rotate(-45)"/><rect class="cls-1" x="30.48" y="10.11" width="5.05" height="50.54" transform="translate(31.33 83.74) rotate(-135)"/><rect class="cls-1" x="30.48" y="10.11" width="5.05" height="50.54" transform="translate(12.95 79.41) rotate(-112.5)"/><rect class="cls-1" x="30.48" y="10.11" width="5.05" height="50.54" transform="translate(77.04 55.43) rotate(157.5)"/><rect class="cls-1" x="30.48" y="10.11" width="5.05" height="50.54" transform="translate(-12.31 52.34) rotate(-67.5)"/><rect class="cls-1" x="30.48" y="10.11" width="5.05" height="50.54" transform="translate(49.96 80.7) rotate(-157.5)"/><rect class="cls-1" x="32.17" width="1.68" height="70.76"/><rect class="cls-1" x="-2.37" y="34.54" width="70.76" height="1.68"/><g><line class="cls-1" x1="7.99" y1="10.36" x2="58.02" y2="60.4"/><rect class="cls-1" x="32.17" y="0" width="1.68" height="70.76" transform="translate(-15.35 33.7) rotate(-45)"/></g><g><line class="cls-1" x1="7.99" y1="60.4" x2="58.02" y2="10.36"/><rect class="cls-1" x="-2.37" y="34.54" width="70.76" height="1.68" transform="translate(-15.35 33.7) rotate(-45)"/></g><g><line class="cls-1" x1="19.47" y1="2.69" x2="46.55" y2="68.06"/><rect class="cls-1" x="32.17" y="0" width="1.68" height="70.76" transform="translate(-11.03 15.32) rotate(-22.5)"/></g><g><line class="cls-1" x1=".32" y1="48.92" x2="65.69" y2="21.84"/><rect class="cls-1" x="-2.37" y="34.54" width="70.76" height="1.68" transform="translate(-11.02 15.32) rotate(-22.49)"/></g><g><line class="cls-1" x1=".32" y1="21.84" x2="65.69" y2="48.92"/><rect class="cls-1" x="32.17" y="0" width="1.68" height="70.76" transform="translate(-12.31 52.34) rotate(-67.5)"/></g><g><line class="cls-1" x1="19.47" y1="68.06" x2="46.55" y2="2.69"/><rect class="cls-1" x="-2.37" y="34.54" width="70.76" height="1.68" transform="translate(-12.31 52.34) rotate(-67.51)"/></g><rect class="cls-1" x="30.48" y="10.11" width="5.05" height="50.54"/><rect class="cls-1" x="30.48" y="10.11" width="5.05" height="50.54" transform="translate(-2.37 68.39) rotate(-90)"/><rect class="cls-1" x="30.48" y="10.11" width="5.05" height="50.54" transform="translate(-15.35 33.7) rotate(-45)"/><rect class="cls-1" x="30.48" y="10.11" width="5.05" height="50.54" transform="translate(31.33 83.74) rotate(-135)"/><rect class="cls-1" x="30.48" y="10.11" width="5.05" height="50.54" transform="translate(12.95 79.41) rotate(-112.5)"/><rect class="cls-1" x="30.48" y="10.11" width="5.05" height="50.54" transform="translate(77.04 55.43) rotate(157.5)"/><rect class="cls-1" x="30.48" y="10.11" width="5.05" height="50.54" transform="translate(-12.31 52.34) rotate(-67.5)"/><rect class="cls-1" x="30.48" y="10.11" width="5.05" height="50.54" transform="translate(49.96 80.7) rotate(-157.5)"/><rect class="cls-1" x="32.17" width="1.68" height="70.76"/><rect class="cls-1" x="-2.37" y="34.54" width="70.76" height="1.68"/><g><line class="cls-1" x1="7.99" y1="10.36" x2="58.02" y2="60.4"/><rect class="cls-1" x="32.17" y="0" width="1.68" height="70.76" transform="translate(-15.35 33.7) rotate(-45)"/></g><g><line class="cls-1" x1="7.99" y1="60.4" x2="58.02" y2="10.36"/><rect class="cls-1" x="-2.37" y="34.54" width="70.76" height="1.68" transform="translate(-15.35 33.7) rotate(-45)"/></g><g><line class="cls-1" x1="19.47" y1="2.69" x2="46.55" y2="68.06"/><rect class="cls-1" x="32.17" y="0" width="1.68" height="70.76" transform="translate(-11.03 15.32) rotate(-22.5)"/></g><g><line class="cls-1" x1=".32" y1="48.92" x2="65.69" y2="21.84"/><rect class="cls-1" x="-2.37" y="34.54" width="70.76" height="1.68" transform="translate(-11.02 15.32) rotate(-22.49)"/></g><g><line class="cls-1" x1=".32" y1="21.84" x2="65.69" y2="48.92"/><rect class="cls-1" x="32.17" y="0" width="1.68" height="70.76" transform="translate(-12.31 52.34) rotate(-67.5)"/></g><g><line class="cls-1" x1="19.47" y1="68.06" x2="46.55" y2="2.69"/><rect class="cls-1" x="-2.37" y="34.54" width="70.76" height="1.68" transform="translate(-12.31 52.34) rotate(-67.51)"/></g></svg>