<?xml version="1.0" encoding="UTF-8"?><svg id="Layer_1" xmlns="http://www.w3.org/2000/svg" viewBox="0 0 70.76 70.69"><defs><style>.cls-1{fill:#fff;}</style></defs><rect class="cls-1" x="32.85" y="10.11" width="5.05" height="50.54"/><rect class="cls-1" x="32.85" y="10.11" width="5.05" height="50.54" transform="translate(0 70.76) rotate(-90)"/><rect class="cls-1" x="32.85" y="10.11" width="5.05" height="50.54" transform="translate(-14.65 35.38) rotate(-45)"/><rect class="cls-1" x="32.85" y="10.11" width="5.05" height="50.54" transform="translate(35.38 85.41) rotate(-135)"/><rect class="cls-1" x="32.85" y="10.11" width="5.05" height="50.54" transform="translate(16.23 81.6) rotate(-112.5)"/><rect class="cls-1" x="32.85" y="10.11" width="5.05" height="50.54" transform="translate(81.6 54.53) rotate(157.5)"/><rect class="cls-1" x="32.85" y="10.11" width="5.05" height="50.54" transform="translate(-10.85 54.53) rotate(-67.5)"/><rect class="cls-1" x="32.85" y="10.11" width="5.05" height="50.54" transform="translate(54.53 81.6) rotate(-157.5)"/><rect class="cls-1" x="34.54" width="1.68" height="70.76"/><rect class="cls-1" y="34.54" width="70.76" height="1.68"/><g><line class="cls-1" x1="10.36" y1="10.36" x2="60.4" y2="60.4"/><rect class="cls-1" x="34.54" y="0" width="1.68" height="70.76" transform="translate(-14.65 35.38) rotate(-45)"/></g><g><line class="cls-1" x1="10.36" y1="60.4" x2="60.4" y2="10.36"/><rect class="cls-1" x="0" y="34.54" width="70.76" height="1.68" transform="translate(-14.65 35.38) rotate(-45)"/></g><g><line class="cls-1" x1="21.84" y1="2.69" x2="48.92" y2="68.06"/><rect class="cls-1" x="34.54" y="0" width="1.68" height="70.76" transform="translate(-10.85 16.23) rotate(-22.5)"/></g><g><line class="cls-1" x1="2.69" y1="48.92" x2="68.06" y2="21.84"/><rect class="cls-1" x="0" y="34.54" width="70.76" height="1.68" transform="translate(-10.84 16.23) rotate(-22.49)"/></g><g><line class="cls-1" x1="2.69" y1="21.84" x2="68.06" y2="48.92"/><rect class="cls-1" x="34.54" y="0" width="1.68" height="70.76" transform="translate(-10.85 54.53) rotate(-67.5)"/></g><g><line class="cls-1" x1="21.84" y1="68.06" x2="48.92" y2="2.69"/><rect class="cls-1" x="0" y="34.54" width="70.76" height="1.68" transform="translate(-10.84 54.53) rotate(-67.51)"/></g><rect class="cls-1" x="32.85" y="10.11" width="5.05" height="50.54"/><rect class="cls-1" x="32.85" y="10.11" width="5.05" height="50.54" transform="translate(0 70.76) rotate(-90)"/><rect class="cls-1" x="32.85" y="10.11" width="5.05" height="50.54" transform="translate(-14.65 35.38) rotate(-45)"/><rect class="cls-1" x="32.85" y="10.11" width="5.05" height="50.54" transform="translate(35.38 85.41) rotate(-135)"/><rect class="cls-1" x="32.85" y="10.11" width="5.05" height="50.54" transform="translate(16.23 81.6) rotate(-112.5)"/><rect class="cls-1" x="32.85" y="10.11" width="5.05" height="50.54" transform="translate(81.6 54.53) rotate(157.5)"/><rect class="cls-1" x="32.85" y="10.11" width="5.05" height="50.54" transform="translate(-10.85 54.53) rotate(-67.5)"/><rect class="cls-1" x="32.85" y="10.11" width="5.05" height="50.54" transform="translate(54.53 81.6) rotate(-157.5)"/><rect class="cls-1" x="34.54" width="1.68" height="70.76"/><rect class="cls-1" y="34.54" width="70.76" height="1.68"/><g><line class="cls-1" x1="10.36" y1="10.36" x2="60.4" y2="60.4"/><rect class="cls-1" x="34.54" y="0" width="1.68" height="70.76" transform="translate(-14.65 35.38) rotate(-45)"/></g><g><line class="cls-1" x1="10.36" y1="60.4" x2="60.4" y2="10.36"/><rect class="cls-1" x="0" y="34.54" width="70.76" height="1.68" transform="translate(-14.65 35.38) rotate(-45)"/></g><g><line class="cls-1" x1="21.84" y1="2.69" x2="48.92" y2="68.06"/><rect class="cls-1" x="34.54" y="0" width="1.68" height="70.76" transform="translate(-10.85 16.23) rotate(-22.5)"/></g><g><line class="cls-1" x1="2.69" y1="48.92" x2="68.06" y2="21.84"/><rect class="cls-1" x="0" y="34.54" width="70.76" height="1.68" transform="translate(-10.84 16.23) rotate(-22.49)"/></g><g><line class="cls-1" x1="2.69" y1="21.84" x2="68.06" y2="48.92"/><rect class="cls-1" x="34.54" y="0" width="1.68" height="70.76" transform="translate(-10.85 54.53) rotate(-67.5)"/></g><g><line class="cls-1" x1="21.84" y1="68.06" x2="48.92" y2="2.69"/><rect class="cls-1" x="0" y="34.54" width="70.76" height="1.68" transform="translate(-10.84 54.53) rotate(-67.51)"/></g></svg>