<?xml version="1.0" encoding="UTF-8"?><svg id="Layer_1" xmlns="http://www.w3.org/2000/svg" viewBox="0 0 280.22 70.76"><defs><style>.cls-1{fill:#1c1c1c;}</style></defs><rect class="cls-1" x="32.85" y="10.11" width="5.05" height="50.54"/><rect class="cls-1" x="32.85" y="10.11" width="5.05" height="50.54" transform="translate(0 70.76) rotate(-90)"/><rect class="cls-1" x="32.85" y="10.11" width="5.05" height="50.54" transform="translate(-14.65 35.38) rotate(-45)"/><rect class="cls-1" x="32.85" y="10.11" width="5.05" height="50.54" transform="translate(35.38 85.41) rotate(-135)"/><rect class="cls-1" x="32.85" y="10.11" width="5.05" height="50.54" transform="translate(16.23 81.6) rotate(-112.5)"/><rect class="cls-1" x="32.85" y="10.11" width="5.05" height="50.54" transform="translate(81.6 54.53) rotate(157.5)"/><rect class="cls-1" x="32.85" y="10.11" width="5.05" height="50.54" transform="translate(-10.85 54.53) rotate(-67.5)"/><rect class="cls-1" x="32.85" y="10.11" width="5.05" height="50.54" transform="translate(54.53 81.6) rotate(-157.5)"/><rect class="cls-1" x="34.54" width="1.68" height="70.76"/><rect class="cls-1" y="34.54" width="70.76" height="1.68"/><g><line class="cls-1" x1="10.36" y1="10.36" x2="60.4" y2="60.4"/><rect class="cls-1" x="34.54" y="0" width="1.68" height="70.76" transform="translate(-14.65 35.38) rotate(-45)"/></g><g><line class="cls-1" x1="10.36" y1="60.4" x2="60.4" y2="10.36"/><rect class="cls-1" x="0" y="34.54" width="70.76" height="1.68" transform="translate(-14.65 35.38) rotate(-45)"/></g><g><line class="cls-1" x1="21.84" y1="2.69" x2="48.92" y2="68.06"/><rect class="cls-1" x="34.54" y="0" width="1.68" height="70.76" transform="translate(-10.85 16.23) rotate(-22.5)"/></g><g><line class="cls-1" x1="2.69" y1="48.92" x2="68.06" y2="21.84"/><rect class="cls-1" x="0" y="34.54" width="70.76" height="1.68" transform="translate(-10.84 16.23) rotate(-22.49)"/></g><g><line class="cls-1" x1="2.69" y1="21.84" x2="68.06" y2="48.92"/><rect class="cls-1" x="34.54" y="0" width="1.68" height="70.76" transform="translate(-10.85 54.53) rotate(-67.5)"/></g><g><line class="cls-1" x1="21.84" y1="68.06" x2="48.92" y2="2.69"/><rect class="cls-1" x="0" y="34.54" width="70.76" height="1.68" transform="translate(-10.84 54.53) rotate(-67.51)"/></g><rect class="cls-1" x="32.85" y="10.11" width="5.05" height="50.54"/><rect class="cls-1" x="32.85" y="10.11" width="5.05" height="50.54" transform="translate(0 70.76) rotate(-90)"/><rect class="cls-1" x="32.85" y="10.11" width="5.05" height="50.54" transform="translate(-14.65 35.38) rotate(-45)"/><rect class="cls-1" x="32.85" y="10.11" width="5.05" height="50.54" transform="translate(35.38 85.41) rotate(-135)"/><rect class="cls-1" x="32.85" y="10.11" width="5.05" height="50.54" transform="translate(16.23 81.6) rotate(-112.5)"/><rect class="cls-1" x="32.85" y="10.11" width="5.05" height="50.54" transform="translate(81.6 54.53) rotate(157.5)"/><rect class="cls-1" x="32.85" y="10.11" width="5.05" height="50.54" transform="translate(-10.85 54.53) rotate(-67.5)"/><rect class="cls-1" x="32.85" y="10.11" width="5.05" height="50.54" transform="translate(54.53 81.6) rotate(-157.5)"/><rect class="cls-1" x="34.54" width="1.68" height="70.76"/><rect class="cls-1" y="34.54" width="70.76" height="1.68"/><g><line class="cls-1" x1="10.36" y1="10.36" x2="60.4" y2="60.4"/><rect class="cls-1" x="34.54" y="0" width="1.68" height="70.76" transform="translate(-14.65 35.38) rotate(-45)"/></g><g><line class="cls-1" x1="10.36" y1="60.4" x2="60.4" y2="10.36"/><rect class="cls-1" x="0" y="34.54" width="70.76" height="1.68" transform="translate(-14.65 35.38) rotate(-45)"/></g><g><line class="cls-1" x1="21.84" y1="2.69" x2="48.92" y2="68.06"/><rect class="cls-1" x="34.54" y="0" width="1.68" height="70.76" transform="translate(-10.85 16.23) rotate(-22.5)"/></g><g><line class="cls-1" x1="2.69" y1="48.92" x2="68.06" y2="21.84"/><rect class="cls-1" x="0" y="34.54" width="70.76" height="1.68" transform="translate(-10.84 16.23) rotate(-22.49)"/></g><g><line class="cls-1" x1="2.69" y1="21.84" x2="68.06" y2="48.92"/><rect class="cls-1" x="34.54" y="0" width="1.68" height="70.76" transform="translate(-10.85 54.53) rotate(-67.5)"/></g><g><line class="cls-1" x1="21.84" y1="68.06" x2="48.92" y2="2.69"/><rect class="cls-1" x="0" y="34.54" width="70.76" height="1.68" transform="translate(-10.84 54.53) rotate(-67.51)"/></g><g><path class="cls-1" d="m92.2,10.65h7.71c7.53,0,11.36,3.77,11.36,10.35v.24c0,6.61-3.92,10.62-11.39,10.62h-7.68V10.65Zm7.5,16.52c3.62,0,5.22-1.9,5.22-5.84v-.24c0-4.03-1.6-5.75-5.28-5.75h-1.33v11.84h1.39Z"/><path class="cls-1" d="m112.77,27.55c0-3.65,3.08-5.07,8.25-5.07h1.48v-.36c0-1.48-.36-2.46-2.05-2.46-1.45,0-1.99.86-2.11,1.84h-4.98c.24-3.74,3.17-5.58,7.42-5.58s7,1.75,7,5.87v10.06h-5.16v-1.81c-.74,1.13-2.11,2.17-4.6,2.17-2.79,0-5.25-1.36-5.25-4.66Zm9.73-1.13v-.95h-1.39c-2.14,0-3.08.42-3.08,1.69,0,.89.59,1.45,1.84,1.45,1.51,0,2.64-.86,2.64-2.19Z"/><path class="cls-1" d="m134.42,23.96l-4.84-7.62h6.11l2.4,4.09,2.34-4.09h5.46l-4.89,7.21,5.37,8.31h-6.11l-2.76-4.63-2.82,4.63h-5.43l5.16-7.89Z"/><path class="cls-1" d="m154.62,10.65h7.92l4.06,11.3,4.06-11.3h7.77v21.21h-6.05v-13.2l-5.19,13.2h-2.02l-5.13-13.2v13.2h-5.43V10.65Z"/><path class="cls-1" d="m180.57,27.55c0-3.65,3.08-5.07,8.25-5.07h1.48v-.36c0-1.48-.36-2.46-2.05-2.46-1.45,0-1.99.86-2.11,1.84h-4.98c.24-3.74,3.17-5.58,7.42-5.58s7,1.75,7,5.87v10.06h-5.16v-1.81c-.74,1.13-2.11,2.17-4.6,2.17-2.79,0-5.25-1.36-5.25-4.66Zm9.73-1.13v-.95h-1.39c-2.14,0-3.08.42-3.08,1.69,0,.89.59,1.45,1.84,1.45,1.51,0,2.64-.86,2.64-2.19Z"/><path class="cls-1" d="m195.97,18l2.37-7.74,4.69,1.57-4.06,7.33-3-1.16Z"/><path class="cls-1" d="m199.68,31.86h5.28c.24,1.13.92,2.02,2.85,2.02,2.34,0,3.29-1.33,3.29-3.26v-2.37c-.8,1.48-2.49,2.85-4.81,2.85-3.62,0-6.58-2.67-6.58-7.45v-.24c0-4.57,2.94-7.48,6.58-7.48,2.46,0,3.92,1.04,4.81,2.61v-2.19h5.31v14.21c0,4.63-3.06,7.06-8.6,7.06s-7.71-2.23-8.13-5.75Zm11.57-8.25v-.21c0-2.14-1.1-3.5-3.06-3.5s-3.06,1.39-3.06,3.53v.24c0,2.14,1.13,3.5,3.03,3.5s3.08-1.36,3.08-3.56Z"/><path class="cls-1" d="m219.35,26.46v-10.12h5.31v9.25c0,1.75.68,2.61,2.19,2.61,1.6,0,2.64-.95,2.64-2.94v-8.93h5.31v15.51h-5.31v-2.4c-.83,1.6-2.34,2.76-4.92,2.76-3,0-5.22-1.84-5.22-5.75Z"/><path class="cls-1" d="m237.91,9.52h5.28v22.34h-5.28V9.52Z"/><path class="cls-1" d="m92.2,39.21h7.92l4.06,11.3,4.06-11.3h7.77v21.21h-6.05v-13.2l-5.19,13.2h-2.02l-5.13-13.2v13.2h-5.43v-21.21Z"/><path class="cls-1" d="m118.78,40.69c0-1.57,1.25-2.76,2.91-2.76s2.94,1.19,2.94,2.76-1.28,2.73-2.94,2.73-2.91-1.16-2.91-2.73Zm.27,4.21h5.31v15.51h-5.31v-15.51Z"/><path class="cls-1" d="m127.43,44.91h5.31v2.49c.83-1.6,2.52-2.91,5.1-2.91,3,0,5.07,1.87,5.07,5.84v10.09h-5.31v-9.02c0-1.75-.68-2.61-2.22-2.61s-2.64.95-2.64,2.94v8.69h-5.31v-15.51Z"/><path class="cls-1" d="m145.61,40.69c0-1.57,1.25-2.76,2.91-2.76s2.94,1.19,2.94,2.76-1.28,2.73-2.94,2.73-2.91-1.16-2.91-2.73Zm.27,4.21h5.31v15.51h-5.31v-15.51Z"/><path class="cls-1" d="m154.25,44.91h5.31v2.49c.83-1.6,2.52-2.91,5.1-2.91,3,0,5.07,1.87,5.07,5.84v10.09h-5.31v-9.02c0-1.75-.68-2.61-2.22-2.61s-2.64.95-2.64,2.94v8.69h-5.31v-15.51Z"/><path class="cls-1" d="m171.86,60.42h5.28c.24,1.13.92,2.02,2.85,2.02,2.34,0,3.29-1.33,3.29-3.26v-2.37c-.8,1.48-2.49,2.85-4.81,2.85-3.62,0-6.58-2.67-6.58-7.45v-.24c0-4.57,2.94-7.48,6.58-7.48,2.46,0,3.92,1.04,4.81,2.61v-2.19h5.31v14.21c0,4.63-3.06,7.06-8.6,7.06s-7.71-2.23-8.13-5.75Zm11.57-8.25v-.21c0-2.14-1.1-3.5-3.06-3.5s-3.06,1.39-3.06,3.53v.24c0,2.14,1.13,3.5,3.03,3.5s3.08-1.36,3.08-3.56Z"/><path class="cls-1" d="m196.95,49.95v-.24c0-6.53,4.63-10.83,10.83-10.83,5.52,0,9.34,2.55,9.85,8.16h-6.26c-.24-2.17-1.42-3.35-3.56-3.35-2.73,0-4.45,2.14-4.45,5.99v.24c0,3.83,1.63,5.99,4.54,5.99,2.14,0,3.65-1.13,3.94-3.47h6.05c-.42,5.49-4.39,8.34-9.88,8.34-7.42,0-11.06-4.33-11.06-10.83Z"/><path class="cls-1" d="m219.28,52.85v-.24c0-4.98,3.71-8.13,8.51-8.13s8.45,3.06,8.45,7.98v.24c0,5.04-3.71,8.07-8.48,8.07s-8.48-2.91-8.48-7.92Zm11.57-.09v-.24c0-2.61-1.04-4.06-3.06-4.06s-3.08,1.39-3.08,4v.24c0,2.67,1.04,4.12,3.08,4.12s3.06-1.48,3.06-4.06Z"/><path class="cls-1" d="m238.44,44.91h5.31v3.08c.98-2.31,2.61-3.32,5.01-3.29v4.95c-3.23-.09-5.01.92-5.01,3.41v7.36h-5.31v-15.51Z"/><path class="cls-1" d="m250.58,44.91h5.31v2.31c.89-1.48,2.49-2.73,4.83-2.73,3.62,0,6.56,2.73,6.56,8.04v.24c0,5.34-2.94,8.01-6.58,8.01-2.34,0-4.03-1.1-4.81-2.64v7.48h-5.31v-20.7Zm11.3,7.86v-.24c0-2.73-1.19-4.03-3.06-4.03s-3.08,1.39-3.08,4v.24c0,2.64,1.16,3.97,3.08,3.97s3.06-1.39,3.06-3.95Z"/></g><path class="cls-1" d="m280.22,56.15c0,2.65-2.06,4.72-4.7,4.72s-4.68-2.07-4.68-4.69,2.03-4.69,4.7-4.69,4.68,2.02,4.68,4.67Zm-.9,0c0-2.17-1.58-3.8-3.77-3.8s-3.79,1.67-3.79,3.83,1.59,3.83,3.76,3.83,3.8-1.69,3.8-3.85Zm-2.3.88l1.13,1.73h-1.38l-.97-1.49h-.92v1.49h-1.38v-5.16h2.25c1.41,0,2.25.72,2.25,1.83,0,.76-.35,1.3-.97,1.59Zm-1.37-.8c.62,0,.98-.29.98-.8s-.36-.81-.98-.81h-.78v1.61h.78Z"/></svg>